<svg width="949" height="487" viewBox="0 0 949 487" fill="none" xmlns="http://www.w3.org/2000/svg">
<path fill-rule="evenodd" clip-rule="evenodd" d="M343 362C335.82 362 330 367.82 330 375V424.3H665V375C665 367.82 659.18 362 652 362H343Z" fill="#3A549F"/>
<path fill-rule="evenodd" clip-rule="evenodd" d="M330 424.3V473.3C330 480.48 335.82 486.3 343 486.3H652C659.18 486.3 665 480.48 665 473.3V424.3H330Z" fill="#2B2D53"/>
<path fill-rule="evenodd" clip-rule="evenodd" d="M348.039 375C345.277 375 343.039 377.239 343.039 380V424.3H651.961V380C651.961 377.239 649.722 375 646.961 375H348.039Z" fill="#2B2D53"/>
<path fill-rule="evenodd" clip-rule="evenodd" d="M349.358 424.3V466.9H645.642V424.3H349.358Z" fill="#941D26"/>
<path fill-rule="evenodd" clip-rule="evenodd" d="M645.642 381.3H349.358V424.3H645.642V381.3Z" fill="#E01C2F"/>
<mask id="path-6-outside-1_3_228" maskUnits="userSpaceOnUse" x="409" y="397" width="175" height="63" fill="black">
<rect fill="white" x="409" y="397" width="175" height="63"/>
<path d="M421.175 455L413.975 400.7H426.725L431.675 448.4H431.825L436.775 400.7H449.525L442.325 455H421.175ZM470.217 432.65L467.292 408.2H467.142L464.217 432.65H470.217ZM448.917 455L457.092 400.7H477.342L485.517 455H472.842L471.267 441.95H463.167L461.592 455H448.917ZM521.932 400.7V442.025C521.932 454.1 516.157 455.6 506.182 455.6C496.207 455.6 490.432 454.1 490.432 442.025V400.7H502.882V442.4C502.882 444.5 503.707 445.85 506.182 445.85C508.657 445.85 509.482 444.5 509.482 442.4V400.7H521.932ZM529.771 455V400.7H542.221V445.25H554.296V455H529.771ZM559.054 455V410.45H550.354V400.7H580.204V410.45H571.504V455H559.054Z"/>
</mask>
<path d="M421.175 455L413.975 400.7H426.725L431.675 448.4H431.825L436.775 400.7H449.525L442.325 455H421.175ZM470.217 432.65L467.292 408.2H467.142L464.217 432.65H470.217ZM448.917 455L457.092 400.7H477.342L485.517 455H472.842L471.267 441.95H463.167L461.592 455H448.917ZM521.932 400.7V442.025C521.932 454.1 516.157 455.6 506.182 455.6C496.207 455.6 490.432 454.1 490.432 442.025V400.7H502.882V442.4C502.882 444.5 503.707 445.85 506.182 445.85C508.657 445.85 509.482 444.5 509.482 442.4V400.7H521.932ZM529.771 455V400.7H542.221V445.25H554.296V455H529.771ZM559.054 455V410.45H550.354V400.7H580.204V410.45H571.504V455H559.054Z" fill="white"/>
<path d="M421.175 455L417.705 455.46L418.108 458.5H421.175V455ZM413.975 400.7V397.2H409.98L410.505 401.16L413.975 400.7ZM426.725 400.7L430.206 400.339L429.881 397.2H426.725V400.7ZM431.675 448.4L428.194 448.761L428.519 451.9H431.675V448.4ZM431.825 448.4V451.9H434.981L435.306 448.761L431.825 448.4ZM436.775 400.7V397.2H433.619L433.294 400.339L436.775 400.7ZM449.525 400.7L452.995 401.16L453.52 397.2H449.525V400.7ZM442.325 455V458.5H445.392L445.795 455.46L442.325 455ZM424.645 454.54L417.445 400.24L410.505 401.16L417.705 455.46L424.645 454.54ZM413.975 404.2H426.725V397.2H413.975V404.2ZM423.244 401.061L428.194 448.761L435.156 448.039L430.206 400.339L423.244 401.061ZM431.675 451.9H431.825V444.9H431.675V451.9ZM435.306 448.761L440.256 401.061L433.294 400.339L428.344 448.039L435.306 448.761ZM436.775 404.2H449.525V397.2H436.775V404.2ZM446.055 400.24L438.855 454.54L445.795 455.46L452.995 401.16L446.055 400.24ZM442.325 451.5H421.175V458.5H442.325V451.5ZM470.217 432.65V436.15H474.16L473.692 432.234L470.217 432.65ZM467.292 408.2L470.767 407.784L470.398 404.7H467.292V408.2ZM467.142 408.2V404.7H464.036L463.667 407.784L467.142 408.2ZM464.217 432.65L460.742 432.234L460.273 436.15H464.217V432.65ZM448.917 455L445.456 454.479L444.85 458.5H448.917V455ZM457.092 400.7V397.2H454.079L453.631 400.179L457.092 400.7ZM477.342 400.7L480.803 400.179L480.354 397.2H477.342V400.7ZM485.517 455V458.5H489.583L488.978 454.479L485.517 455ZM472.842 455L469.367 455.419L469.739 458.5H472.842V455ZM471.267 441.95L474.742 441.531L474.37 438.45H471.267V441.95ZM463.167 441.95V438.45H460.064L459.692 441.531L463.167 441.95ZM461.592 455V458.5H464.695L465.067 455.419L461.592 455ZM473.692 432.234L470.767 407.784L463.817 408.616L466.742 433.066L473.692 432.234ZM467.292 404.7H467.142V411.7H467.292V404.7ZM463.667 407.784L460.742 432.234L467.692 433.066L470.617 408.616L463.667 407.784ZM464.217 436.15H470.217V429.15H464.217V436.15ZM452.378 455.521L460.553 401.221L453.631 400.179L445.456 454.479L452.378 455.521ZM457.092 404.2H477.342V397.2H457.092V404.2ZM473.881 401.221L482.056 455.521L488.978 454.479L480.803 400.179L473.881 401.221ZM485.517 451.5H472.842V458.5H485.517V451.5ZM476.317 454.581L474.742 441.531L467.792 442.369L469.367 455.419L476.317 454.581ZM471.267 438.45H463.167V445.45H471.267V438.45ZM459.692 441.531L458.117 454.581L465.067 455.419L466.642 442.369L459.692 441.531ZM461.592 451.5H448.917V458.5H461.592V451.5ZM521.932 400.7H525.432V397.2H521.932V400.7ZM490.432 400.7V397.2H486.932V400.7H490.432ZM502.882 400.7H506.382V397.2H502.882V400.7ZM509.482 400.7V397.2H505.982V400.7H509.482ZM518.432 400.7V442.025H525.432V400.7H518.432ZM518.432 442.025C518.432 447.607 517.097 449.558 515.789 450.474C514.117 451.645 511.269 452.1 506.182 452.1V459.1C511.069 459.1 516.096 458.805 519.805 456.207C523.879 453.354 525.432 448.518 525.432 442.025H518.432ZM506.182 452.1C501.094 452.1 498.246 451.645 496.574 450.474C495.266 449.558 493.932 447.607 493.932 442.025H486.932C486.932 448.518 488.484 453.354 492.558 456.207C496.267 458.805 501.294 459.1 506.182 459.1V452.1ZM493.932 442.025V400.7H486.932V442.025H493.932ZM490.432 404.2H502.882V397.2H490.432V404.2ZM499.382 400.7V442.4H506.382V400.7H499.382ZM499.382 442.4C499.382 443.806 499.64 445.671 500.949 447.194C502.351 448.826 504.322 449.35 506.182 449.35V442.35C506.03 442.35 505.931 442.34 505.876 442.331C505.822 442.322 505.817 442.317 505.85 442.329C505.884 442.342 505.949 442.371 506.029 442.426C506.111 442.481 506.189 442.551 506.258 442.631C506.326 442.71 506.37 442.783 506.397 442.835C506.422 442.886 506.428 442.91 506.424 442.897C506.42 442.883 506.409 442.837 506.399 442.751C506.389 442.665 506.382 442.55 506.382 442.4H499.382ZM506.182 449.35C508.041 449.35 510.012 448.825 511.414 447.194C512.723 445.671 512.982 443.806 512.982 442.4H505.982C505.982 442.55 505.974 442.665 505.964 442.751C505.954 442.837 505.943 442.883 505.939 442.897C505.936 442.91 505.941 442.886 505.967 442.835C505.993 442.783 506.037 442.71 506.105 442.631C506.174 442.551 506.253 442.481 506.334 442.426C506.414 442.371 506.479 442.342 506.513 442.329C506.546 442.317 506.542 442.322 506.487 442.331C506.432 442.34 506.334 442.35 506.182 442.35V449.35ZM512.982 442.4V400.7H505.982V442.4H512.982ZM509.482 404.2H521.932V397.2H509.482V404.2ZM529.771 455H526.271V458.5H529.771V455ZM529.771 400.7V397.2H526.271V400.7H529.771ZM542.221 400.7H545.721V397.2H542.221V400.7ZM542.221 445.25H538.721V448.75H542.221V445.25ZM554.296 445.25H557.796V441.75H554.296V445.25ZM554.296 455V458.5H557.796V455H554.296ZM533.271 455V400.7H526.271V455H533.271ZM529.771 404.2H542.221V397.2H529.771V404.2ZM538.721 400.7V445.25H545.721V400.7H538.721ZM542.221 448.75H554.296V441.75H542.221V448.75ZM550.796 445.25V455H557.796V445.25H550.796ZM554.296 451.5H529.771V458.5H554.296V451.5ZM559.054 455H555.554V458.5H559.054V455ZM559.054 410.45H562.554V406.95H559.054V410.45ZM550.354 410.45H546.854V413.95H550.354V410.45ZM550.354 400.7V397.2H546.854V400.7H550.354ZM580.204 400.7H583.704V397.2H580.204V400.7ZM580.204 410.45V413.95H583.704V410.45H580.204ZM571.504 410.45V406.95H568.004V410.45H571.504ZM571.504 455V458.5H575.004V455H571.504ZM562.554 455V410.45H555.554V455H562.554ZM559.054 406.95H550.354V413.95H559.054V406.95ZM553.854 410.45V400.7H546.854V410.45H553.854ZM550.354 404.2H580.204V397.2H550.354V404.2ZM576.704 400.7V410.45H583.704V400.7H576.704ZM580.204 406.95H571.504V413.95H580.204V406.95ZM568.004 410.45V455H575.004V410.45H568.004ZM571.504 451.5H559.054V458.5H571.504V451.5Z" fill="#941D26" mask="url(#path-6-outside-1_3_228)"/>
<g clip-path="url(#clip0_3_228)">
<path d="M0 129.115L42.3524 200.816L59.2603 184.644L13.1643 115.705L0 129.115Z" fill="url(#paint0_linear_3_228)"/>
<path d="M628.835 72.764L627.198 82.2153L647.455 75.6601L644.93 64.0826L628.835 72.764Z" fill="#0071B9"/>
<path d="M510.807 8.21517L445.627 83.176L464.595 77.7051L526.652 0L510.807 8.21517Z" fill="url(#paint1_linear_3_228)"/>
<path d="M859.502 110.707L875.501 102.156L870.93 142.335L859.502 110.707Z" fill="#1D2C5E"/>
<path d="M760.062 136.472L774.283 139.393L792.434 130.556L776.681 124.661L760.062 136.472Z" fill="#1D2C5E"/>
<path d="M269.758 93.8105L272.034 140.371L291.882 132.329L285.941 85.1044L269.758 93.8105Z" fill="url(#paint2_linear_3_228)"/>
<path d="M775.452 79.916L759.478 88.5621L760.062 136.472L776.142 128.208L781.189 105.017L775.452 79.916Z" fill="url(#paint3_linear_3_228)"/>
<path d="M773.258 139.527L755.667 296.237L783.788 290.674L789.296 131.075L773.258 139.527Z" fill="#312370"/>
<path d="M807.694 303.749L808.194 325.001L862.175 342.254L878.241 333.714L825.274 292.56L771.621 287.835L755.667 296.237L807.694 303.749Z" fill="#21386E"/>
<path d="M607.441 266.371L620.707 259.205L629.163 274.873L641.665 267.982L644.155 288.636L722.633 302.594L738.316 293.945L630.1 227.817L553.333 241.013L538.358 255.285L607.441 266.371Z" fill="#21386E"/>
<path d="M582.45 73.5622L566.74 82.233L538.358 255.285L554.255 247.003L581.5 149.837L582.45 73.5622Z" fill="url(#paint4_linear_3_228)"/>
<path d="M457.083 96.7561L444.567 103.442L445.62 107.627L475.407 88.6504L462.391 74.6429L445.627 83.176L457.083 96.7561Z" fill="#1D2C5E"/>
<path d="M491.304 301.171L363.324 237.594L379.39 225.412L507.229 292.546L491.304 301.171Z" fill="#21386E"/>
<path d="M375.351 64.5523L355.956 101.436L376.449 95.2126L391.237 55.9098L375.351 64.5523Z" fill="#1D2C5E"/>
<path d="M199.447 216.925L183.085 228.188C183.085 228.188 186.557 246.498 191.033 259.233C195.534 272.015 206.247 282.283 206.247 282.283C213.129 289.029 221.563 293.938 230.973 296.693C249.072 301.916 269.498 298.512 287.033 287.298C291.618 284.388 297.841 279.729 301.665 276.052C284.43 286.542 199.447 216.925 199.447 216.925Z" fill="url(#paint5_linear_3_228)"/>
<path d="M287.008 136.575L301.94 301.782L362.951 292.73L379.274 284.151L303.56 126.671L287.983 131.934L272.033 140.371L287.008 136.575Z" fill="#1D2C5E"/>
<path d="M58.2848 193.957L126.452 349L191.213 328.049L207.026 317.39L72.6077 176.344L55.7879 186.452L42.3525 200.816L58.2848 193.957Z" fill="url(#paint6_linear_3_228)"/>
<path d="M733.864 267.106L734.779 274.717C740.358 274.089 746.218 273.365 751.233 271.574C757.079 269.568 769.778 263.896 774.607 259.717C772.797 260.378 743.041 268.113 733.864 267.106Z" fill="#1D2C5E"/>
<path d="M504.743 227.517L507.173 239.773C520.281 237.816 531.533 232.953 542.595 226.285C549.536 222.138 557.157 215.883 559.562 214.216C557.865 215.304 504.743 227.517 504.743 227.517Z" fill="#1D2C5E"/>
<path d="M144.173 334.3L139.112 323.023L74.4813 178.36L73.1536 175.394L70.2165 176.753L68.2549 177.657L56.7493 183.323C55.0519 180.469 52.2345 175.687 50.2764 172.37L24.2613 128.278L17.4573 116.768L28.7127 109.616C39.359 102.806 51.3822 96.5159 64.4619 90.9143C90.5052 79.7889 117.087 73.9047 141.327 73.9047C149.301 73.9047 157.017 74.5511 164.265 75.8155C176.348 77.1965 187.522 81.1734 196.753 87.34C210.509 95.0537 221.338 107.02 227.455 121.176C232.477 132.81 233.456 146.436 230.266 160.57L228.392 168.874L235.27 163.873C239.905 160.5 244.941 157.618 250.237 155.304C259.394 151.423 268.867 149.441 278.358 149.441C287.342 149.441 295.837 151.225 303.609 154.732L308.621 156.985L308.117 151.5L305.937 127.798L305.585 124.04L301.936 124.99L290.987 127.837L289.068 87.4778L369.272 61.7798L368.624 93.1465L374.664 94.7005L392.181 61.0345L444.644 107.698L446.831 109.651L448.966 107.638C456.154 100.864 464.673 95.4281 474.283 91.4829L478.298 89.8371L475.548 86.4712L466.088 74.9078L526.321 5.28015L557.865 52.4838L509.578 78.5139L498.855 84.2991L511.029 84.5569C533.921 85.0408 554.192 94.7535 568.099 111.901L573.128 118.12L576.368 122.115L570.987 127.844L567.398 131.665L555.333 144.571L553.089 146.969L555.516 149.166L566.824 159.376L571.198 163.322L572.135 157.501L576.474 130.563L577.583 123.648L577.618 123.687L578.759 116.623L585.236 76.8539H643.056H645.768L646.225 74.1732L647.356 67.3637H699.425L712.04 147.259L712.86 152.433L717.086 149.356C722.196 145.634 727.842 142.572 733.871 140.258C741.897 137.221 750.159 135.67 758.407 135.67C768.226 135.67 777.759 137.945 786.003 142.243C786.222 142.402 786.532 142.607 786.954 142.777L790.867 144.352L791.328 140.142L792.272 131.436L792.582 128.582L789.782 127.957L779.224 125.59L778.71 83.9424L859.206 101.711L865.253 131.679L871.504 131.803L877.741 106.013L944.866 122.383L876.269 329.716L827.183 314.257L826.834 295.16L826.785 292.423L824.077 292.041L775.096 285.108L777.868 260.141L778.527 254.201L773.226 256.924C770.715 258.206 768.285 259.283 765.989 260.131C757.981 263.168 749.779 264.704 741.612 264.704C739.249 264.704 736.875 264.574 734.565 264.312L730.381 263.843L731.036 268.01L734.484 289.968L663.024 277.327L659.281 244.742L658.076 234.298L653.262 243.633L645.035 259.544L629.888 231.501L625.334 223.078L623.898 232.543L620.598 254.25L557.967 244.364L562.824 214.573L563.933 207.742L558.013 211.292C547.761 217.455 535.988 222.092 522.031 225.472C517.154 226.666 512.058 227.492 506.87 227.923L503.933 228.171V231.127V287.347L380.591 226.214L375.956 223.922L375.96 229.103L376.044 281.389L320.898 289.537L318.58 264.429L317.953 257.711L313.146 262.437C305.86 269.589 297.651 275.134 288.751 278.92C279.647 282.802 270.255 284.766 260.841 284.766C251.442 284.766 242.609 282.795 234.587 278.941C219.725 271.772 209.005 258.764 204.405 242.351C202.215 234.641 201.62 226.5 202.637 218.144L203.726 209.243L197.253 215.424C192.689 219.768 187.772 223.918 182.63 227.729L180.887 229.018L181.437 231.12L200.014 302.633L203.296 315.323L190.857 319.29L155.879 330.521L144.173 334.3ZM159.873 142.321C158.07 142.321 156.207 142.487 154.33 142.826L151.949 143.285L148.434 143.963L149.494 147.396L150.185 149.628L160.186 182.45L161.187 185.604L162.673 190.337L166.371 187.038L168.825 184.845C178.521 176.107 181.919 167.235 179.873 156.046C178.584 149.332 173.4 145.987 170.421 144.588C167.307 143.084 163.743 142.321 159.873 142.321ZM428.001 143.398L421.75 149.501L405.286 165.547L401.7 169.04L406.367 170.848L424.025 177.682L429.448 179.777L428.328 174.062C426.87 166.68 426.49 159.292 427.173 152.104L428.001 143.398ZM499.901 125.149C493.072 125.149 486.465 128.094 481.771 133.223C474.65 141.021 473.266 152.525 478.33 161.842L479.672 164.367L481.831 168.404L484.87 164.992L486.824 162.82L510.976 135.165L512.875 132.976L515.921 129.465L511.575 127.851L508.867 126.848C506.025 125.732 502.982 125.149 499.901 125.149Z" fill="#FFCB05"/>
<path d="M536.851 166.112C536.617 166.317 536.401 166.578 536.216 166.846C536.461 166.624 536.699 166.43 536.951 166.225L536.851 166.112Z" fill="#7D7F68"/>
<path d="M557.671 146.768L569.733 133.862L565.606 138.256L565.725 137.701L562.077 141.562L550.025 154.428L561.316 164.614L563.362 151.928L568.983 156.975L557.671 146.768Z" fill="#7D7F68"/>
<path d="M557.671 146.768L568.983 156.975L573.315 130.041L569.733 133.862L557.671 146.768Z" fill="#7D7F68"/>
<path d="M474.297 179.046C475.262 180.024 474.371 179.321 475.453 180.063L482.831 174.846C481.735 174.069 480.651 173.236 479.654 172.303C468.948 162.52 471.73 140.516 478.675 128.472C460.394 143.264 461.345 166.034 474.297 179.046Z" fill="#C7A008"/>
<path d="M563.362 191.365C551.177 201.473 537.287 208.064 518.936 212.51C514.924 213.432 510.994 214.103 507.148 214.442C478.02 217.314 453.583 203.899 444.31 182.143C443.155 179.508 442.264 176.842 441.591 173.995C437.302 155.671 440.964 139.298 449.991 126.463C450.885 125.22 451.825 124.029 452.811 122.818C452.35 123.213 451.878 123.553 451.494 123.923C448.025 127.021 444.954 130.415 442.345 134.123C433.308 146.958 429.645 163.343 433.974 181.638C434.636 184.485 435.513 187.19 436.643 189.765C445.919 211.571 470.364 224.978 499.467 222.127C503.345 221.753 507.261 221.11 511.276 220.139C529.649 215.692 543.528 209.13 555.713 199.022C558.689 196.567 561.559 193.89 564.345 190.962L564.088 190.715C563.81 190.955 563.602 191.163 563.362 191.365Z" fill="#C7A008"/>
<path d="M358.084 135.974L390.628 90.1091L389.307 88.887L357.908 133.12L358.084 135.974Z" fill="#C7A008"/>
<path d="M573.315 130.041L568.983 156.975L563.362 151.928L561.316 164.614L550.025 154.428L562.077 141.562L565.725 137.701L565.606 138.256L569.733 133.862L573.315 130.041Z" fill="#C7A008"/>
<path d="M533.1 54.4935L544.496 49.5913L523.665 22.7807L516.84 32.3415L533.1 54.4935Z" fill="#C7A008"/>
<path d="M217.591 120.914C164.99 56.6515 70.2094 91.1933 36.1436 121.253L37.4748 123.56C45.3072 119.053 53.5657 114.977 62.2538 111.322C96.0907 96.8267 128.35 92.5778 154.213 97.1163C163.356 98.1688 173.041 100.888 181.468 106.546C193.136 113.098 201.979 122.419 207.149 134.364C216.323 155.52 208.24 183.651 186.635 207.202C213.734 182.263 232.276 158.402 217.591 120.914Z" fill="#C7A008"/>
<path d="M324.905 195.783C324.659 194.618 324.412 193.434 324.035 192.294C321.074 181.61 314.71 173.08 306.367 167.404C292.864 158.207 274.016 156.318 255.231 164.272C245.349 168.556 236.756 175.15 229.963 183.026C235.185 178.519 241.155 174.765 247.603 171.968C266.346 163.989 285.194 165.875 298.742 175.062C307.085 180.744 313.396 189.27 316.421 199.94C316.756 201.084 317.017 202.285 317.277 203.49C318.08 207.551 318.453 211.659 318.298 215.865C317.908 228.163 313.361 240.546 305.8 251.121C304.581 252.795 303.299 254.356 301.972 255.903C306.275 252.177 310.117 248.055 313.4 243.439C320.993 232.932 325.529 220.524 325.93 208.152C326.099 204.023 325.758 199.848 324.905 195.783Z" fill="#C7A008"/>
<path d="M273.111 180.098C273.037 180.215 280.743 172.441 280.654 172.441C271.015 172.074 266.941 181.189 266.606 181.906C268.585 180.946 270.769 180.321 273.111 180.098Z" fill="#C7A008"/>
<path d="M291.266 191.241C291.657 192.551 291.861 193.855 291.861 195.282C291.861 197.295 291.414 199.227 290.6 201.007C292.143 200.198 303.289 194.777 298.968 183.291C299.2 183.644 290.987 191.206 291.266 191.241Z" fill="#C7A008"/>
<path d="M247.42 197.634C247.42 192.908 255.488 181.444 258.003 177.619C245.261 185.742 239.774 196.705 239.774 205.34C239.774 220.136 252.738 232.034 268.237 232.034C275.569 232.034 288.998 228.146 297.781 213.891C293.178 216.929 281.479 224.197 275.34 224.197C259.845 224.194 247.42 212.51 247.42 197.634Z" fill="#C7A008"/>
<path d="M356.495 211.175L356.696 271.058L366.173 271.602L364.3 203.338L356.495 211.175Z" fill="#C7A008"/>
<path d="M302.099 97.1658L302.292 102.485L347.205 89.0742L350.533 146.432L358.027 135.9L356.428 78.3408L302.099 97.1658Z" fill="#C7A008"/>
<path d="M437.865 117.704L395.678 78.8741L390.628 90.1091L427.758 125.092L437.865 117.704Z" fill="#C7A008"/>
<path d="M431.452 190.065L381.922 173.642L374.706 181.285L424.049 201.088C429.645 211.662 438.126 220.722 448.804 227.344C459.14 233.684 470.952 237.481 483.461 238.685V263.126L491.11 266.954L493.53 230.237L431.452 190.065Z" fill="#C7A008"/>
<path d="M510.987 183.157C523.151 180.215 530.167 173.85 536.206 166.846C531.674 170.576 508.952 175.542 505.134 176.838L497.65 184.831C501.07 185.134 506.789 184.209 510.987 183.157Z" fill="#C7A008"/>
<path d="M488.863 98.6916C466.433 101.637 454.745 120.522 452.811 122.821C461.095 115.804 471.477 110.594 483.169 107.818C510.924 101.086 535.396 109.573 550.522 128.328L559.883 120.381C544.901 101.951 516.611 91.981 488.863 98.6916Z" fill="#C7A008"/>
<path d="M564.091 190.715C566.796 188.433 571.603 186.127 574.16 183.439L544.127 156.526C541.827 159.285 539.742 163.83 536.935 166.221L564.091 190.715Z" fill="#C7A008"/>
<path d="M718.217 262.836C686.708 236.863 688.592 181.168 704.059 163.498L690.177 76.2075L659.812 80.1385L658.46 87.8274H681.436L693.603 167.026C678.122 184.753 670.642 208.501 675.815 230.244C679.819 247.045 690.11 260.643 704.922 268.508C706.412 269.328 707.951 270.041 709.525 270.716L709.722 271.878L718.756 273.308C718.756 273.305 719.696 263.592 718.217 262.836Z" fill="#C7A008"/>
<path d="M597.111 89.053L595.805 96.7455H630.438L640.64 152.835L648.324 145.051L640.246 85.839L597.111 89.053Z" fill="#C7A008"/>
<path d="M656.4 197.941L645.218 226.91L647.987 234.447L663.979 190.33L656.4 197.941Z" fill="#C7A008"/>
<path d="M623.193 179.695L615.494 187.405L607.243 239.727L615.146 242.754L623.193 179.695Z" fill="#C7A008"/>
<path d="M778.738 162.983C783.27 166.228 787.137 170.336 790.046 175.221C792.342 178.968 794.079 183.164 795.188 187.769C798.96 203.497 794.448 220.506 784.478 234.154C783.475 235.538 782.369 236.877 781.312 238.191C785.362 234.698 834.554 198.308 786.493 150.515C733.631 133.039 713.621 167.627 711.751 169.82C717.336 165.059 723.781 161.121 730.761 158.444C748.652 151.649 766.253 154.004 778.738 162.983Z" fill="#C7A008"/>
<path d="M752.089 166.43C752.237 166.765 759.678 158.652 759.83 158.652C750.423 159.041 745.905 163.594 746.37 165.695C745.806 166.511 745.348 167.32 744.989 168.213C746.996 167.21 750.708 166.44 752.089 166.43Z" fill="#C7A008"/>
<path d="M769.775 178.286C770.113 179.551 770.275 180.875 770.247 182.298C770.163 184.121 769.691 185.791 769.001 187.349C770.43 186.703 781.83 183.153 777.477 170.573C777.59 170.929 769.652 178.293 769.775 178.286Z" fill="#C7A008"/>
<path d="M744.803 218.232C755.442 218.687 767.208 212.132 775.646 200.548C753.994 205.001 731.233 168.842 733.516 165.303C725.335 171.251 718.094 182.722 717.763 190.74C717.199 205.605 729.268 217.61 744.803 218.232Z" fill="#C7A008"/>
<path d="M863.453 312.445L868.528 315.85L930.469 129.419L884.112 118.675L883.531 129.596L920.925 137.917L863.453 312.445Z" fill="#C7A008"/>
<path d="M789.895 98.6915L790.3 109.104L839.587 119.032L858.562 209.282L866.243 201.519L848.166 110.34L789.895 98.6915Z" fill="#C7A008"/>
<path d="M827.824 201.537L814.254 278.503L822.069 281.043L835.54 193.957L827.824 201.537Z" fill="#C7A008"/>
<path d="M188.22 306.744L165.166 222.922L156.728 228.842L178.094 309.146L188.22 306.744Z" fill="#C7A008"/>
<path d="M182.236 180.698C176.918 186.357 165.131 197.351 158.415 201.688L154.337 188.557L145.406 159.765L139.729 140.272L134.189 147.403L139.845 166.924L148.776 195.695L152.836 208.865C162.032 202.925 175.407 191.774 182.236 180.698Z" fill="#C7A008"/>
<path d="M508.885 131.136C501.609 128.328 491.304 129.172 485.74 135.278C484.447 136.695 481.933 140.308 481.137 141.922C486.522 137.627 496.111 136.698 502.398 138.973L508.885 131.136Z" fill="#7D7F68"/>
<path d="M175.583 157.144C174.766 152.835 170.558 149.413 168.494 148.463C164.803 146.676 158.418 146.397 153.756 147.248C154.594 150.151 155.555 153.556 155.964 154.951C157.855 155.216 160.961 155.781 162.592 156.526C164.638 157.515 168.216 159.846 169.047 164.183C170.16 169.972 169.868 175.383 167.462 179.777C174.059 173.285 177.26 166.225 175.583 157.144Z" fill="#7D7F68"/>
<path d="M187.135 157.024C183.969 139.986 161.754 130.595 139.729 142.642L145.406 162.142L154.337 190.959L158.411 204.083C174.935 193.427 191.544 180.624 187.135 157.024ZM165.258 183.224C162.852 175.351 157.577 158.352 157.577 158.352C157.601 158.43 156.538 154.714 155.277 150.462C159.947 149.625 164.434 149.964 168.124 151.744C170.188 152.729 173.816 155.029 174.608 159.387C176.432 169.185 173.139 176.178 165.258 183.224Z" fill="#3C5AA6"/>
<path d="M520.415 129.991C508.103 118.664 488.966 119.544 477.735 131.881C466.437 144.196 467.324 163.399 479.654 174.68C480.658 175.651 481.742 176.446 482.834 177.227L522.549 132.121C521.848 131.386 521.144 130.655 520.415 129.991ZM482.915 161.718C479.031 154.566 479.816 145.486 485.623 139.121C491.209 133.018 499.767 131.28 507.064 134.102L482.915 161.718Z" fill="#3567B0"/>
<path d="M573.48 125.039L551.487 146.291L572.382 165.109L573.48 125.039Z" fill="#1E2D5F"/>
<path d="M777.417 170.573C777.752 171.911 777.924 173.236 777.882 174.645C777.516 183.072 769.616 189.578 760.199 189.136C750.789 188.811 743.397 181.649 743.767 173.243C744.084 165.363 751.085 159.126 759.731 158.727C758.09 158.356 756.375 158.162 754.586 158.098C738.833 157.416 725.957 168.605 725.415 182.535C724.809 197.433 736.716 209.579 752.219 210.253C767.993 210.886 780.861 199.658 781.488 184.831C781.671 179.692 780.157 174.765 777.417 170.573Z" fill="#3466AF"/>
<path d="M299.535 187.586C299.535 196.048 291.861 202.829 282.461 202.829C273.037 202.829 265.391 196.045 265.391 187.586C265.391 179.699 272.118 173.197 280.739 172.441C279.088 172.141 277.369 171.968 275.594 171.968C259.845 171.968 247.42 183.683 247.42 197.634C247.42 212.521 259.848 224.197 275.34 224.197C291.104 224.197 303.518 212.514 303.518 197.634C303.518 192.481 301.82 187.625 298.901 183.626C299.295 184.831 299.535 186.166 299.535 187.586Z" fill="url(#paint7_linear_3_228)"/>
<path d="M875.396 102.114L868.402 131.022L861.943 99.0129L775.452 79.9196L776.058 128.151L789.092 131.082L788.152 139.782C787.983 139.714 787.877 139.612 787.786 139.538C771.628 130.987 751.596 130.111 732.744 137.253C726.419 139.679 720.548 142.868 715.224 146.746L702.175 64.1426H644.655L643.07 73.6399H582.528L575.615 116.104L570.593 109.884C555.921 91.8079 534.653 81.8515 511.093 81.357L562.496 53.6494L526.652 0.00354004L461.891 74.8407L473.069 88.5091C462.944 92.6591 454.097 98.3807 446.768 105.293L391.241 55.8851L371.826 93.203L372.572 57.3402L285.758 85.1538L287.983 131.93L302.754 128.087L304.937 151.793C288.061 144.193 267.776 144.38 248.962 152.352C243.388 154.789 238.189 157.784 233.4 161.266C236.654 146.824 235.883 132.587 230.396 119.89C223.916 104.886 212.512 92.486 198.531 84.6629C188.73 78.1148 177.049 74.0354 164.825 72.6474C134.784 67.3814 98.7109 72.7887 63.2082 87.9581C50.1566 93.5421 37.982 99.8783 27.0012 106.893L13.122 115.719L21.5038 129.913L47.5153 174.002C47.5153 174.002 55.4745 187.511 55.5273 187.504L69.5931 180.571L71.5548 179.667L136.189 324.337L142.423 338.242L156.855 333.58L191.826 322.345L207.152 317.46L203.109 301.814L184.536 230.311C189.878 226.345 194.865 222.138 199.468 217.734C198.429 226.277 198.975 234.927 201.32 243.206C206.177 260.54 217.496 274.233 233.203 281.82C250.167 289.996 270.864 290.017 290.012 281.873C299.616 277.787 308.156 271.825 315.393 264.729L318.031 293.207L379.274 284.162L379.179 229.089L507.148 292.518V231.102C512.283 230.671 517.523 229.859 522.792 228.563C536.886 225.147 548.948 220.464 559.665 214.025L554.29 247.01L623.288 257.898L627.074 232.999L645.095 266.386L656.111 245.099L660.136 280.05L738.365 293.881L734.216 267.488C744.926 268.703 756.213 267.262 767.116 263.136C769.698 262.179 772.248 261.014 774.688 259.763L771.571 287.845L823.637 295.213L824.024 316.627L878.315 333.717L949 120.056L875.396 102.114ZM569.733 133.866L573.322 130.041L568.987 156.978L557.678 146.764L569.733 133.866ZM523.887 23.8261L542.841 49.6478L488.652 76.589L484.909 70.885L523.887 23.8261ZM165.061 222.943L186.68 306.137L151.688 317.347L79.8837 156.526C75.9781 158.585 68.7655 162.039 62.1411 165.296L36.1401 121.246C46.48 114.624 57.82 108.754 69.8819 103.643C103.733 89.2049 136.031 84.896 161.863 89.4733C171.002 90.5046 180.676 93.2065 189.149 98.847C200.775 105.413 209.667 114.758 214.795 126.661C227.3 155.643 206.409 197.351 165.061 222.943ZM325.937 208.138C325.536 220.524 321 232.935 313.407 243.435C306.184 253.59 296.094 261.971 284.222 267.095C253.865 279.994 223.507 267.095 215.397 238.191C207.54 210.243 225.821 176.972 255.235 164.265C274.02 156.311 292.868 158.197 306.37 167.397C314.71 173.07 321.07 181.599 324.039 192.287C324.412 193.42 324.659 194.611 324.909 195.776C325.758 199.848 326.099 204.023 325.937 208.138ZM491.11 266.954L364.134 203.264L364.359 269.995L331.512 274.488L329.223 246.981C339.366 229.541 343.074 208.989 337.781 190.143C334.875 179.784 329.508 170.791 322.215 163.586L317.503 107.504L302.754 111.339L302.102 97.1587L354.851 81.4065L358.084 135.967L396.943 81.2122L434.932 117.495L381.806 173.624L431.716 193.424C437.291 204.02 445.796 213.022 456.467 219.655C466.782 226.041 478.601 229.816 491.103 231.056L491.11 266.954ZM425.18 174.68L407.518 167.846L423.983 151.797C423.278 159.165 423.641 166.868 425.18 174.68ZM563.363 191.365C551.177 201.473 537.288 208.064 518.936 212.51C514.924 213.432 510.994 214.103 507.148 214.442C478.02 217.314 453.583 203.899 444.31 182.143C443.155 179.508 442.264 176.842 441.591 173.995C437.302 155.671 440.964 139.294 449.991 126.463C452.59 122.719 455.675 119.307 459.14 116.234C467.642 108.627 478.496 103.096 490.836 100.122C518.584 93.4114 543.021 101.906 558.002 120.342L505.127 176.785C508.712 177.463 514.414 176.52 518.622 175.51C531.216 172.43 538.263 165.727 544.472 158.423L565.602 177.488L572.005 183.287C569.23 186.166 566.314 188.882 563.363 191.365ZM675.541 266.689L664.039 190.277L647.772 232.43L623.415 179.745H623.141L613.516 240.758L572.921 233.673L578.629 199.626C580.161 198.181 581.669 196.733 583.151 195.204L596.308 181.617L583.521 170.131L597.108 89.0495H638.066L648.317 145.178L659.805 80.1315H689.103L701.26 159.38C685.789 177.054 678.273 200.813 683.443 222.548C687.441 239.398 697.766 252.968 712.568 260.894C714.058 261.646 715.6 262.391 717.192 263.034L718.742 273.308L675.541 266.689ZM776.703 241.793C772.226 244.989 767.3 247.705 762.003 249.666C751.547 253.66 741.147 254.49 731.881 252.643C725.423 251.364 719.534 248.839 714.41 245.184C706.261 239.271 700.26 230.54 697.615 219.577C694.53 206.407 697.372 192.343 704.436 180.024C707.958 174.002 712.477 168.344 717.823 163.466C723.785 158.105 730.698 153.715 738.39 150.748C756.291 144.052 773.945 146.361 786.373 155.322C790.945 158.571 794.737 162.707 797.727 167.514C799.995 171.311 801.756 175.496 802.823 180.066C806.63 195.882 802.098 212.821 792.149 226.468C787.888 232.285 782.693 237.512 776.703 241.793ZM868.109 313.815L838.09 304.848L835.473 193.855L820.376 279.478L787.627 274.237L789.973 249.584C811.357 231.462 822.693 202.875 816.481 176.969C813.751 165.497 807.87 155.509 799.58 147.915L802.344 118.841L789.962 115.535L790.79 100.012L847.211 111.385L866.183 201.611L885.641 120.72L928.564 130.231L868.109 313.815Z" fill="url(#paint8_linear_3_228)"/>
<path d="M892.778 324.335V315.955H889.657V314.834H897.165V315.955H894.031V324.335H892.778Z" fill="black"/>
<path d="M898.419 324.335V314.834H900.306L902.548 321.561C902.755 322.187 902.905 322.656 903 322.967C903.108 322.622 903.276 322.114 903.504 321.444L905.772 314.834H907.459V324.335H906.251V316.383L903.498 324.335H902.367L899.627 316.247V324.335H898.419Z" fill="black"/>
</g>
<defs>
<linearGradient id="paint0_linear_3_228" x1="46.8392" y1="189.041" x2="11.4029" y2="123.19" gradientUnits="userSpaceOnUse">
<stop stop-color="#0070B6"/>
<stop offset="1" stop-color="#1D2C5E"/>
</linearGradient>
<linearGradient id="paint1_linear_3_228" x1="477.111" y1="54.3458" x2="522.028" y2="6.35642" gradientUnits="userSpaceOnUse">
<stop stop-color="#0070B6"/>
<stop offset="1" stop-color="#1D2C5E"/>
</linearGradient>
<linearGradient id="paint2_linear_3_228" x1="281.747" y1="134.565" x2="276.376" y2="89.5784" gradientUnits="userSpaceOnUse">
<stop stop-color="#0070B6"/>
<stop offset="1" stop-color="#1D2C5E"/>
</linearGradient>
<linearGradient id="paint3_linear_3_228" x1="770.898" y1="125.905" x2="768.753" y2="85.2957" gradientUnits="userSpaceOnUse">
<stop stop-color="#125D9E"/>
<stop offset="1" stop-color="#1D2C5E"/>
</linearGradient>
<linearGradient id="paint4_linear_3_228" x1="621.447" y1="67.3697" x2="574.261" y2="142.222" gradientUnits="userSpaceOnUse">
<stop stop-color="#125D9E"/>
<stop offset="1" stop-color="#1D2C5E"/>
</linearGradient>
<linearGradient id="paint5_linear_3_228" x1="205.565" y1="187.626" x2="237.753" y2="250.747" gradientUnits="userSpaceOnUse">
<stop stop-color="#105FA1"/>
<stop offset="1" stop-color="#1D2C5E"/>
</linearGradient>
<linearGradient id="paint6_linear_3_228" x1="84.6669" y1="166.056" x2="121.929" y2="252.189" gradientUnits="userSpaceOnUse">
<stop stop-color="#105FA1"/>
<stop offset="1" stop-color="#1D2C5E"/>
</linearGradient>
<linearGradient id="paint7_linear_3_228" x1="247.42" y1="198.081" x2="303.517" y2="198.081" gradientUnits="userSpaceOnUse">
<stop stop-color="#3C5AA6"/>
<stop offset="0.9331" stop-color="#2B73B9"/>
<stop offset="1" stop-color="#2A75BB"/>
</linearGradient>
<linearGradient id="paint8_linear_3_228" x1="13.1244" y1="169.122" x2="949.004" y2="169.122" gradientUnits="userSpaceOnUse">
<stop stop-color="#3C5AA6"/>
<stop offset="0.9331" stop-color="#2B73B9"/>
<stop offset="1" stop-color="#2A75BB"/>
</linearGradient>
<clipPath id="clip0_3_228">
<rect width="949" height="349" fill="white"/>
</clipPath>
</defs>
</svg>
